<?xml version="1.0" encoding="UTF-8" standalone="no"?>
<!DOCTYPE svg PUBLIC "-//W3C//DTD SVG 1.1//EN" "http://www.w3.org/Graphics/SVG/1.1/DTD/svg11.dtd">
<svg width="100%" height="100%" viewBox="0 0 512 512" version="1.1" xmlns="http://www.w3.org/2000/svg" xmlns:xlink="http://www.w3.org/1999/xlink" xml:space="preserve" xmlns:serif="http://www.serif.com/" style="fill-rule:evenodd;clip-rule:evenodd;stroke-linejoin:round;stroke-miterlimit:2;">
    <path d="M288,480L288,512L352,512L352,480L384,480L384,448L416,448L416,416L448,416L448,352L512,352L512,64L448,64L448,0L64,0L64,64L0,64L0,352L64,352L64,416L320,416L320,480L288,480ZM96,320L416,320L416,288L96,288L96,320ZM96,224L416,224L416,192L96,192L96,224ZM416,96L96,96L96,128L416,128L416,96Z"/>
</svg>
