<?xml version="1.0" encoding="UTF-8" standalone="no"?>
<!DOCTYPE svg PUBLIC "-//W3C//DTD SVG 1.1//EN" "http://www.w3.org/Graphics/SVG/1.1/DTD/svg11.dtd">
<svg width="100%" height="100%" viewBox="0 0 512 128" version="1.1" xmlns="http://www.w3.org/2000/svg" xmlns:xlink="http://www.w3.org/1999/xlink" xml:space="preserve" xmlns:serif="http://www.serif.com/" style="fill-rule:evenodd;clip-rule:evenodd;stroke-linejoin:round;stroke-miterlimit:2;">
    <g transform="matrix(0.304446,0,0,0.482165,-18.4469,-48.8888)">
        <g transform="matrix(154.606,0,0,154.606,215.606,256)">
            <path d="M0.125,-0.125L0.125,-1L0.375,-1L0.375,-0.25L0.875,-0.25L0.875,-0.125L0.125,-0.125Z" style="fill:white;fill-rule:nonzero;"/>
        </g>
        <g transform="matrix(154.606,0,0,154.606,370.211,256)">
            <path d="M0.25,-0.125L0.25,-0.25L0.125,-0.25L0.125,-0.375L0,-0.375L0,-0.75L0.125,-0.75L0.125,-0.875L0.25,-0.875L0.25,-1L0.875,-1L0.875,-0.875L0.375,-0.875L0.375,-0.75L0.25,-0.75L0.25,-0.375L0.375,-0.375L0.375,-0.25L0.625,-0.25L0.625,-0.5L0.5,-0.5L0.5,-0.625L0.875,-0.625L0.875,-0.125L0.25,-0.125Z" style="fill:white;fill-rule:nonzero;"/>
        </g>
        <g transform="matrix(154.606,0,0,154.606,524.817,256)">
            <path d="M0.25,-0.125L0.25,-0.25L0.125,-0.25L0.125,-0.375L0,-0.375L0,-0.75L0.125,-0.75L0.125,-0.875L0.25,-0.875L0.25,-1L0.625,-1L0.625,-0.875L0.75,-0.875L0.75,-0.75L0.875,-0.75L0.875,-0.375L0.75,-0.375L0.75,-0.25L0.625,-0.25L0.625,-0.125L0.25,-0.125ZM0.375,-0.25L0.625,-0.25L0.625,-0.75L0.5,-0.75L0.5,-0.875L0.25,-0.875L0.25,-0.375L0.375,-0.375L0.375,-0.25Z" style="fill:white;fill-rule:nonzero;"/>
        </g>
        <g transform="matrix(154.606,0,0,154.606,679.422,256)">
            <path d="M0,-0.125L0,-1L0.75,-1L0.75,-0.875L0.875,-0.875L0.875,-0.5L0.625,-0.5L0.625,-0.375L0.75,-0.375L0.75,-0.25L0.875,-0.25L0.875,-0.125L0.5,-0.125L0.5,-0.25L0.375,-0.25L0.375,-0.375L0.25,-0.375L0.25,-0.125L0,-0.125ZM0.25,-0.5L0.5,-0.5L0.5,-0.625L0.625,-0.625L0.625,-0.875L0.25,-0.875L0.25,-0.5Z" style="fill:white;fill-rule:nonzero;"/>
        </g>
        <g transform="matrix(154.606,0,0,154.606,834.028,256)">
            <path d="M0.125,-0.125L0.125,-0.25L0.375,-0.25L0.375,-0.75L0.25,-0.75L0.25,-0.875L0.375,-0.875L0.375,-1L0.625,-1L0.625,-0.25L0.875,-0.25L0.875,-0.125L0.125,-0.125Z" style="fill:white;fill-rule:nonzero;"/>
        </g>
        <g transform="matrix(154.606,0,0,154.606,988.633,256)">
            <path d="M0.375,-0.125L0.375,-0.875L0.125,-0.875L0.125,-1L0.875,-1L0.875,-0.875L0.625,-0.875L0.625,-0.125L0.375,-0.125Z" style="fill:white;fill-rule:nonzero;"/>
        </g>
        <g transform="matrix(154.606,0,0,154.606,1143.24,256)">
            <path d="M0,-0.125L0,-1L0.25,-1L0.25,-0.625L0.625,-0.625L0.625,-1L0.875,-1L0.875,-0.125L0.625,-0.125L0.625,-0.5L0.25,-0.5L0.25,-0.125L0,-0.125Z" style="fill:white;fill-rule:nonzero;"/>
        </g>
        <g transform="matrix(154.606,0,0,154.606,1297.84,256)">
            <path d="M0,-0.125L0,-1L0.25,-1L0.25,-0.875L0.375,-0.875L0.375,-0.75L0.5,-0.75L0.5,-0.875L0.625,-0.875L0.625,-1L0.875,-1L0.875,-0.125L0.625,-0.125L0.625,-0.625L0.5,-0.625L0.5,-0.375L0.375,-0.375L0.375,-0.625L0.25,-0.625L0.25,-0.125L0,-0.125Z" style="fill:white;fill-rule:nonzero;"/>
        </g>
        <g transform="matrix(154.606,0,0,154.606,1452.45,256)">
            <path d="M0.125,-0.125L0.125,-0.25L0.375,-0.25L0.375,-0.875L0.125,-0.875L0.125,-1L0.875,-1L0.875,-0.875L0.625,-0.875L0.625,-0.25L0.875,-0.25L0.875,-0.125L0.125,-0.125Z" style="fill:white;fill-rule:nonzero;"/>
        </g>
        <g transform="matrix(154.606,0,0,154.606,1607.06,256)">
            <path d="M0,-0.125L0,-0.375L0.125,-0.375L0.125,-0.5L0.25,-0.5L0.25,-0.625L0.125,-0.625L0.125,-0.75L0,-0.75L0,-1L0.25,-1L0.25,-0.75L0.375,-0.75L0.375,-0.625L0.5,-0.625L0.5,-0.75L0.625,-0.75L0.625,-1L0.875,-1L0.875,-0.75L0.75,-0.75L0.75,-0.625L0.625,-0.625L0.625,-0.5L0.75,-0.5L0.75,-0.375L0.875,-0.375L0.875,-0.125L0.625,-0.125L0.625,-0.375L0.5,-0.375L0.5,-0.5L0.375,-0.5L0.375,-0.375L0.25,-0.375L0.25,-0.125L0,-0.125Z" style="fill:white;fill-rule:nonzero;"/>
        </g>
        <g transform="matrix(3.28466,0,0,2.07398,60.5918,101.394)">
            <path d="M10.521,46.591L10.521,65.227L0.124,65.227L0.124,27.954L6.008,27.954L6.008,18.636L11.892,18.636L11.892,9.318L17.775,9.318L17.775,0L35.426,0L35.426,37.273L41.31,37.273L41.31,46.591L35.426,46.591L35.426,65.227L23.659,65.227L23.659,46.591L10.521,46.591ZM11.892,37.273L23.659,37.273L23.659,18.636L17.775,18.636L17.775,27.954L11.892,27.954L11.892,37.273Z" style="fill:white;fill-rule:nonzero;"/>
        </g>
    </g>
    <g transform="matrix(1.75971,0,-1.63092e-16,2.85049,-234.232,-440.119)">
        <g transform="matrix(21.5517,0,0,21.5517,319,202)">
            <rect x="0.25" y="-0.375" width="0.25" height="0.25" style="fill:white;fill-rule:nonzero;"/>
        </g>
        <g transform="matrix(21.5517,0,0,21.5517,340.552,202)">
            <path d="M0,-0.125L0,-1L0.75,-1L0.75,-0.875L0.875,-0.875L0.875,-0.625L0.75,-0.625L0.75,-0.5L0.875,-0.5L0.875,-0.25L0.75,-0.25L0.75,-0.125L0,-0.125ZM0.25,-0.625L0.625,-0.625L0.625,-0.875L0.25,-0.875L0.25,-0.625ZM0.25,-0.25L0.625,-0.25L0.625,-0.5L0.25,-0.5L0.25,-0.25Z" style="fill:white;fill-rule:nonzero;"/>
        </g>
        <g transform="matrix(21.5517,0,0,21.5517,362.103,202)">
            <path d="M0.125,-0.125L0.125,-1L0.375,-1L0.375,-0.25L0.875,-0.25L0.875,-0.125L0.125,-0.125Z" style="fill:white;fill-rule:nonzero;"/>
        </g>
        <g transform="matrix(21.5517,0,0,21.5517,383.655,202)">
            <path d="M0.125,-0.125L0.125,-0.25L0,-0.25L0,-0.875L0.125,-0.875L0.125,-1L0.75,-1L0.75,-0.875L0.875,-0.875L0.875,-0.25L0.75,-0.25L0.75,-0.125L0.125,-0.125ZM0.25,-0.25L0.625,-0.25L0.625,-0.875L0.25,-0.875L0.25,-0.25Z" style="fill:white;fill-rule:nonzero;"/>
        </g>
        <g transform="matrix(21.5517,0,0,21.5517,405.207,202)">
            <path d="M0.25,-0.125L0.25,-0.25L0.125,-0.25L0.125,-0.375L0,-0.375L0,-0.75L0.125,-0.75L0.125,-0.875L0.25,-0.875L0.25,-1L0.875,-1L0.875,-0.875L0.375,-0.875L0.375,-0.75L0.25,-0.75L0.25,-0.375L0.375,-0.375L0.375,-0.25L0.625,-0.25L0.625,-0.5L0.5,-0.5L0.5,-0.625L0.875,-0.625L0.875,-0.125L0.25,-0.125Z" style="fill:white;fill-rule:nonzero;"/>
        </g>
    </g>
</svg>
