<?xml version="1.0" encoding="UTF-8" standalone="no"?>
<!DOCTYPE svg PUBLIC "-//W3C//DTD SVG 1.1//EN" "http://www.w3.org/Graphics/SVG/1.1/DTD/svg11.dtd">
<svg width="100%" height="100%" viewBox="0 0 512 512" version="1.1" xmlns="http://www.w3.org/2000/svg" xmlns:xlink="http://www.w3.org/1999/xlink" xml:space="preserve" xmlns:serif="http://www.serif.com/" style="fill-rule:evenodd;clip-rule:evenodd;stroke-linejoin:round;stroke-miterlimit:2;">
    <path d="M288,96L288,64L320,64L320,32L352,32L352,0L448,0L448,32L480,32L480,64L512,64L512,256L480,256L480,320L448,320L448,352L416,352L416,384L384,384L384,416L352,416L352,448L320,448L320,479.933C320.052,479.953 320.053,479.976 320,480L320,479.933C318.994,479.538 298.758,479.943 288,480L288,512L224,512L224,480C213.242,479.943 193.006,479.538 192,479.933L192,480C191.947,479.976 191.948,479.953 192,479.933L192,448L160,448L160,416L128,416L128,384L96,384L96,352L64,352L64,319.959L32,320L32,256L0,256L0,65L32,64L32,32L64,32L64,0L160,0L160,32L192,32L192,64L224,64L224,96L288,96ZM64,128L96.187,128L96,96L128,96L128,160.002L96,160L96,224L64,224L64,128Z"/>
</svg>
